# xmcd
#
# Track frame offsets:
#	150
#	6682
#	13515
#	22728
#	30943
#	38865
#	45392
#	52564
#	58113
#	65276
#	72459
#	82716
#	91552
#
# Disc length: 1319 seconds
#
# Revision: 0
# Processed by: cddbd v1.5.1PL0 Copyright (c) Steve Scherf et al.
# Submitted via: AudioConverter v5.0 Copyright (c) AC Productions Ltd
#
DISCID=8805250d
DTITLE=Odd Squad - Odd Squad's odd songs take 2
DYEAR=2004
DGENRE=Comedy
TTITLE0=Three Worthless Bosses
TTITLE1=1990 Something
TTITLE2=Frodo
TTITLE3=I Hate This Car
TTITLE4=I Have Forgotten
TTITLE5=It's 9 O'Clock Right Here
TTITLE6=License Picture
TTITLE7=My Front Porch Caving In
TTITLE8=Neighbor's Ladder
TTITLE9=No Socks, No Shoes, No Undies
TTITLE10=This Is Mom
TTITLE11=What Are You Smokin'?
TTITLE12=You Can't Hide Taxables
EXTD=
EXTT0=
EXTT1=
EXTT2=
EXTT3=
EXTT4=
EXTT5=
EXTT6=
EXTT7=
EXTT8=
EXTT9=
EXTT10=
EXTT11=
EXTT12=
PLAYORDER=
